<!-- icon666.com - MILLIONS vector ICONS FREE --><svg version="1.1" id="Capa_1" xmlns="http://www.w3.org/2000/svg" xmlns:xlink="http://www.w3.org/1999/xlink" x="0px" y="0px" viewBox="0 0 512 512" style="enable-background:new 0 0 512 512;" xml:space="preserve"><g><g><path d="M481.23,247.382c-17.972-24.26-42.015-42.503-69.891-53.195c1.107-7.573,1.675-15.256,1.675-22.939 c0-86.577-70.436-157.013-157.013-157.013S98.987,84.672,98.987,171.249c0,7.683,0.567,15.366,1.674,22.939 c-27.877,10.692-51.919,28.934-69.891,53.195C10.641,274.554,0,306.842,0,340.751c0,86.577,70.436,157.013,157.013,157.013 c36.242,0,71.052-12.422,98.987-35.138c27.934,22.716,62.744,35.138,98.987,35.138c86.577,0,157.013-70.436,157.013-157.013 C512,306.842,501.359,274.554,481.23,247.382z M256,34.314c75.506,0,136.935,61.428,136.935,136.935 c0,5.641-0.349,11.281-1.033,16.861c-12.026-2.901-24.395-4.372-36.914-4.372c-36.242,0-71.053,12.422-98.987,35.139 c-27.934-22.716-62.745-35.139-98.987-35.139c-12.52,0-24.89,1.471-36.914,4.372c-0.684-5.581-1.033-11.22-1.033-16.861 C119.065,95.743,180.494,34.314,256,34.314z M256,246.152c15.732,16.418,26.979,36.196,32.991,58.013 c-10.732,2.657-21.788,4.02-32.991,4.02c-11.202,0-22.257-1.362-32.992-4.02C229.02,282.348,240.267,262.57,256,246.152z M203.892,297.905c-39.042-16.05-68.633-49.361-79.886-90.065c10.737-2.659,21.798-4.024,33.007-4.024 c30.644,0,60.112,10.182,84.078,28.853C223.471,251.186,210.797,273.409,203.892,297.905z M270.908,232.669 c23.968-18.671,53.436-28.853,84.078-28.853c11.208,0,22.269,1.363,33.007,4.024c-11.252,40.694-40.841,74.003-79.886,90.063 C301.203,273.409,288.53,251.187,270.908,232.669z M157.013,477.686c-75.507,0-136.935-61.429-136.935-136.935 c0-56.09,33.672-105.715,84.835-126.678c13.419,47.444,48.583,86.019,94.733,103.746c-1.106,7.571-1.674,15.251-1.674,22.932 c0,40.243,15.599,79.02,43.131,108.073C217.135,467.501,187.662,477.686,157.013,477.686z M218.052,340.751 c0-5.641,0.349-11.281,1.033-16.861c12.026,2.901,24.395,4.372,36.914,4.372c12.52,0,24.89-1.471,36.914-4.372 c0.685,5.581,1.035,11.22,1.035,16.861c0,35.257-13.732,69.222-37.948,94.599C231.783,409.973,218.052,376.008,218.052,340.751z M354.987,477.686c-30.649,0-60.123-10.186-84.091-28.862c27.532-29.052,43.132-67.829,43.132-108.073 c0-7.681-0.567-15.362-1.674-22.933c46.153-17.738,81.315-56.31,94.733-103.745c51.162,20.96,84.835,70.586,84.835,126.678 C491.922,416.257,430.494,477.686,354.987,477.686z"></path></g></g><g><g><path d="M291.137,66.928c-12.919,0-12.941,20.078,0,20.078C304.057,87.007,304.078,66.928,291.137,66.928z"></path></g></g><g><g><path d="M362.45,147.617c-5.446-24.623-19.449-46.769-39.426-62.358c-4.372-3.411-10.68-2.633-14.091,1.739 c-3.411,4.372-2.632,10.68,1.739,14.091c16.307,12.724,27.733,30.788,32.174,50.865c1.036,4.684,5.186,7.873,9.793,7.873 c0.718,0,1.448-0.077,2.177-0.239C360.23,158.39,363.648,153.031,362.45,147.617z"></path></g></g></svg>